<?xml version="1.0" encoding="UTF-8"?>
<svg width="192" height="192" viewBox="0 0 192 192" xmlns="http://www.w3.org/2000/svg">
  <!-- Background -->
  <rect width="192" height="192" fill="#0f172a"/>
  
  <!-- QR-like pattern -->
  <g opacity="0.9">
    <!-- Top-left corner -->
    <rect x="28.799999999999997" y="28.799999999999997" width="38.400000000000006" height="38.400000000000006" fill="white" rx="3.84"/>
    <rect x="36.480000000000004" y="36.480000000000004" width="23.04" height="23.04" fill="#0f172a" rx="1.92"/>
    
    <!-- Top-right corner -->
    <rect x="124.80000000000001" y="28.799999999999997" width="38.400000000000006" height="38.400000000000006" fill="white" rx="3.84"/>
    <rect x="132.48" y="36.480000000000004" width="23.04" height="23.04" fill="#0f172a" rx="1.92"/>
    
    <!-- Bottom-left corner -->
    <rect x="28.799999999999997" y="124.80000000000001" width="38.400000000000006" height="38.400000000000006" fill="white" rx="3.84"/>
    <rect x="36.480000000000004" y="132.48" width="23.04" height="23.04" fill="#0f172a" rx="1.92"/>
    
    <!-- Center pattern -->
    <rect x="80.64" y="80.64" width="30.72" height="30.72" fill="white" rx="1.92"/>
    
    <!-- Decorative dots -->
    <circle cx="80.64" cy="53.760000000000005" r="4.800000000000001" fill="white"/>
    <circle cx="96" cy="53.760000000000005" r="4.800000000000001" fill="white"/>
    <circle cx="111.35999999999999" cy="53.760000000000005" r="4.800000000000001" fill="white"/>
    
    <circle cx="80.64" cy="138.24" r="4.800000000000001" fill="white"/>
    <circle cx="96" cy="138.24" r="4.800000000000001" fill="white"/>
    <circle cx="111.35999999999999" cy="138.24" r="4.800000000000001" fill="white"/>
    
    <circle cx="53.760000000000005" cy="80.64" r="4.800000000000001" fill="white"/>
    <circle cx="53.760000000000005" cy="96" r="4.800000000000001" fill="white"/>
    <circle cx="53.760000000000005" cy="111.35999999999999" r="4.800000000000001" fill="white"/>
    
    <circle cx="138.24" cy="80.64" r="4.800000000000001" fill="white"/>
    <circle cx="138.24" cy="96" r="4.800000000000001" fill="white"/>
    <circle cx="138.24" cy="111.35999999999999" r="4.800000000000001" fill="white"/>
  </g>
</svg>