<?xml version="1.0" encoding="UTF-8"?>
<svg width="152" height="152" viewBox="0 0 152 152" xmlns="http://www.w3.org/2000/svg">
  <!-- Background -->
  <rect width="152" height="152" fill="#0f172a"/>
  
  <!-- QR-like pattern -->
  <g opacity="0.9">
    <!-- Top-left corner -->
    <rect x="22.8" y="22.8" width="30.400000000000002" height="30.400000000000002" fill="white" rx="3.04"/>
    <rect x="28.88" y="28.88" width="18.24" height="18.24" fill="#0f172a" rx="1.52"/>
    
    <!-- Top-right corner -->
    <rect x="98.8" y="22.8" width="30.400000000000002" height="30.400000000000002" fill="white" rx="3.04"/>
    <rect x="104.88" y="28.88" width="18.24" height="18.24" fill="#0f172a" rx="1.52"/>
    
    <!-- Bottom-left corner -->
    <rect x="22.8" y="98.8" width="30.400000000000002" height="30.400000000000002" fill="white" rx="3.04"/>
    <rect x="28.88" y="104.88" width="18.24" height="18.24" fill="#0f172a" rx="1.52"/>
    
    <!-- Center pattern -->
    <rect x="63.839999999999996" y="63.839999999999996" width="24.32" height="24.32" fill="white" rx="1.52"/>
    
    <!-- Decorative dots -->
    <circle cx="63.839999999999996" cy="42.56" r="3.8000000000000003" fill="white"/>
    <circle cx="76" cy="42.56" r="3.8000000000000003" fill="white"/>
    <circle cx="88.16" cy="42.56" r="3.8000000000000003" fill="white"/>
    
    <circle cx="63.839999999999996" cy="109.44" r="3.8000000000000003" fill="white"/>
    <circle cx="76" cy="109.44" r="3.8000000000000003" fill="white"/>
    <circle cx="88.16" cy="109.44" r="3.8000000000000003" fill="white"/>
    
    <circle cx="42.56" cy="63.839999999999996" r="3.8000000000000003" fill="white"/>
    <circle cx="42.56" cy="76" r="3.8000000000000003" fill="white"/>
    <circle cx="42.56" cy="88.16" r="3.8000000000000003" fill="white"/>
    
    <circle cx="109.44" cy="63.839999999999996" r="3.8000000000000003" fill="white"/>
    <circle cx="109.44" cy="76" r="3.8000000000000003" fill="white"/>
    <circle cx="109.44" cy="88.16" r="3.8000000000000003" fill="white"/>
  </g>
</svg>