<?xml version="1.0" encoding="UTF-8"?>
<svg width="96" height="96" viewBox="0 0 96 96" xmlns="http://www.w3.org/2000/svg">
  <!-- Background -->
  <rect width="96" height="96" fill="#0f172a"/>
  
  <!-- QR-like pattern -->
  <g opacity="0.9">
    <!-- Top-left corner -->
    <rect x="14.399999999999999" y="14.399999999999999" width="19.200000000000003" height="19.200000000000003" fill="white" rx="1.92"/>
    <rect x="18.240000000000002" y="18.240000000000002" width="11.52" height="11.52" fill="#0f172a" rx="0.96"/>
    
    <!-- Top-right corner -->
    <rect x="62.400000000000006" y="14.399999999999999" width="19.200000000000003" height="19.200000000000003" fill="white" rx="1.92"/>
    <rect x="66.24" y="18.240000000000002" width="11.52" height="11.52" fill="#0f172a" rx="0.96"/>
    
    <!-- Bottom-left corner -->
    <rect x="14.399999999999999" y="62.400000000000006" width="19.200000000000003" height="19.200000000000003" fill="white" rx="1.92"/>
    <rect x="18.240000000000002" y="66.24" width="11.52" height="11.52" fill="#0f172a" rx="0.96"/>
    
    <!-- Center pattern -->
    <rect x="40.32" y="40.32" width="15.36" height="15.36" fill="white" rx="0.96"/>
    
    <!-- Decorative dots -->
    <circle cx="40.32" cy="26.880000000000003" r="2.4000000000000004" fill="white"/>
    <circle cx="48" cy="26.880000000000003" r="2.4000000000000004" fill="white"/>
    <circle cx="55.67999999999999" cy="26.880000000000003" r="2.4000000000000004" fill="white"/>
    
    <circle cx="40.32" cy="69.12" r="2.4000000000000004" fill="white"/>
    <circle cx="48" cy="69.12" r="2.4000000000000004" fill="white"/>
    <circle cx="55.67999999999999" cy="69.12" r="2.4000000000000004" fill="white"/>
    
    <circle cx="26.880000000000003" cy="40.32" r="2.4000000000000004" fill="white"/>
    <circle cx="26.880000000000003" cy="48" r="2.4000000000000004" fill="white"/>
    <circle cx="26.880000000000003" cy="55.67999999999999" r="2.4000000000000004" fill="white"/>
    
    <circle cx="69.12" cy="40.32" r="2.4000000000000004" fill="white"/>
    <circle cx="69.12" cy="48" r="2.4000000000000004" fill="white"/>
    <circle cx="69.12" cy="55.67999999999999" r="2.4000000000000004" fill="white"/>
  </g>
</svg>